<svg xmlns="http://www.w3.org/2000/svg" width="16" height="16"><g fill="#212121"><path d="M15.371 7.071 10.77 5.23 8.929.628a1 1 0 0 0-1.857 0L5.23 5.23.629 7.071a1 1 0 0 0 0 1.857l4.6 1.841 1.841 4.6a1 1 0 0 0 1.857 0l1.841-4.6 4.6-1.841a1 1 0 0 0 0-1.857Zm-5.742 2a1 1 0 0 0-.558.557L8 12.308l-1.071-2.68a1 1 0 0 0-.558-.557L3.692 8l2.679-1.071a1 1 0 0 0 .558-.557L8 3.692l1.071 2.68a1 1 0 0 0 .558.557L12.308 8Z"/><path d="M13.156 5.108 14 2l-3.108.844.647 1.617 1.617.647z"/><path data-name="color" d="m4.461 4.461.647-1.617L2 2l.844 3.108 1.617-.647z"/><path data-name="color" d="m11.539 11.539-.647 1.617L14 14l-.844-3.108-1.617.647z"/><path data-name="color" d="M2.844 10.892 2 14l3.108-.844-.647-1.617-1.617-.647z"/></g></svg>
