<svg xmlns="http://www.w3.org/2000/svg" width="16" height="16"><g fill="#212121"><path d="M3.452 12.5h-.736l.053-.055.112-.118c.657-.686 1.176-1.228 1.173-2.06 0-.29-.07-.571-.199-.812-.292-.548-.884-.903-1.584-.952A1.928 1.928 0 0 0 .27 9.985a.75.75 0 1 0 1.459.347.443.443 0 0 1 .44-.333c.168.012.318.078.363.162.003.007.021.043.021.11 0 .216-.259.497-.756 1.017l-.114.119c-.29.303-.719.759-1.242 1.34a.75.75 0 0 0 .558 1.252h2.453a.75.75 0 0 0 0-1.5Z"/><path d="m1.404 3.424.096-.061V6A.75.75 0 0 0 3 6V2a.751.751 0 0 0-1.151-.634l-1.247.79a.75.75 0 1 0 .803 1.267Z"/><path d="M15 2H7a1 1 0 0 0 0 2h8a1 1 0 0 0 0-2Z"/><path d="M15 7H7a1 1 0 0 0 0 2h8a1 1 0 0 0 0-2Z"/><path d="M15 12H7a1 1 0 0 0 0 2h8a1 1 0 0 0 0-2Z"/></g></svg>
