<svg xmlns="http://www.w3.org/2000/svg" width="32" height="32" viewBox="0 0 32 32"><g class="nc-icon-wrapper" fill="#5c7cfa"><path fill="#5c7cfa" d="M16,0C7.178,0,0,7.178,0,16s7.178,16,16,16s16-7.178,16-16S24.822,0,16,0z M25.352,14.937l-7.575,2.84 l-2.84,7.574C14.789,25.743,14.415,26,14,26c-0.016,0-0.032,0-0.049-0.001c-0.435-0.021-0.806-0.321-0.917-0.741l-4-15 C8.941,9.913,9.041,9.545,9.293,9.293s0.62-0.351,0.965-0.259l15,4c0.42,0.112,0.72,0.483,0.741,0.917 C26.021,14.385,25.759,14.784,25.352,14.937z"></path></g></svg>