<svg xmlns="http://www.w3.org/2000/svg" width="300" height="48"><path d="M8.322 41.838 1.025 7.781A3.953 3.953 0 0 1 4.89 3h1.596a4 4 0 0 1 3.926 3.233L13.92 24.18c.1.44.17.835.21 1.185.04.35.09.815.15 1.395.06-.52.12-.985.18-1.395.06-.41.14-.825.24-1.245l4.253-18.038A4 4 0 0 1 22.847 3h2.016a4 4 0 0 1 3.89 3.07l4.307 18.02c.1.36.18.78.24 1.26s.12.99.18 1.53c.08-.5.155-.96.225-1.38.07-.42.135-.78.195-1.08l3.514-18.18A4 4 0 0 1 41.34 3h1.589a3.948 3.948 0 0 1 3.859 4.78L39.44 41.843A4 4 0 0 1 35.53 45h-2.646a4 4 0 0 1-3.881-3.032L24.06 22.14c-.06-.24-.11-.51-.15-.81-.04-.3-.09-.73-.15-1.29-.06.6-.115 1.035-.165 1.305l-.135.735-4.728 19.847A4 4 0 0 1 14.841 45h-2.607a4 4 0 0 1-3.912-3.162Zm37.6-1.66L59.736 5.52A4 4 0 0 1 63.452 3h3.64a4 4 0 0 1 3.714 2.514l13.866 34.667A3.514 3.514 0 0 1 81.41 45h-2.46a4 4 0 0 1-3.724-2.543L73.1 37.02H57.44l-2.075 5.412A4 4 0 0 1 51.63 45h-2.44a3.518 3.518 0 0 1-3.268-4.821ZM60.62 28.26h9.24l-3.42-8.4-.405-.945c-.15-.35-.295-.71-.435-1.08-.14-.37-.26-.715-.36-1.035-.1.32-.22.665-.36 1.035-.14.37-.285.73-.435 1.08l-.405.945-3.42 8.4ZM94.14 41V28.68L80.842 7.521A2.95 2.95 0 0 1 83.34 3h3.17a4 4 0 0 1 3.353 1.82L98.82 18.6l8.898-13.77a4 4 0 0 1 3.36-1.83h3.192a2.967 2.967 0 0 1 2.512 4.547L103.5 28.68V41a4 4 0 0 1-4 4h-1.36a4 4 0 0 1-4-4ZM123 41V7a4 4 0 0 1 4-4h14.84c3.62 0 6.505.665 8.655 1.995 2.15 1.33 3.695 3.03 4.635 5.1s1.41 4.225 1.41 6.465c0 1.58-.275 3.165-.825 4.755-.55 1.59-1.41 3.05-2.58 4.38-1.17 1.33-2.69 2.4-4.56 3.21-1.87.81-4.115 1.215-6.735 1.215h-9.36V41a4 4 0 0 1-4 4H127a4 4 0 0 1-4-4Zm9.48-19.82h9.72c1.08 0 1.95-.23 2.61-.69a4.014 4.014 0 0 0 1.44-1.755c.3-.71.45-1.435.45-2.175 0-.66-.135-1.35-.405-2.07-.27-.72-.735-1.325-1.395-1.815s-1.56-.735-2.7-.735h-9.72v9.24ZM183 1c-12.683 0-23 10.318-23 23s10.317 23 23 23 23-10.318 23-23-10.317-23-23-23Zm12.342 20.94-10.562 3.84-3.841 10.562A.998.998 0 0 1 180 37h-.035a1 1 0 0 1-.927-.725l-6-21a1 1 0 0 1 1.236-1.236l21 6a1 1 0 0 1 .068 1.901ZM211 41V7a4 4 0 0 1 4-4h1.48a4 4 0 0 1 4 4v34a4 4 0 0 1-4 4H215a4 4 0 0 1-4-4Zm15 0V7a4 4 0 0 1 4-4h2.519a4 4 0 0 1 3.257 1.679L249.76 24.3c.18.26.47.73.87 1.41.4.68.69 1.25.87 1.71-.06-.4-.105-.955-.135-1.665-.03-.71-.045-1.215-.045-1.515V7a4 4 0 0 1 4-4h1.42a4 4 0 0 1 4 4v34a4 4 0 0 1-4 4h-2.177a4 4 0 0 1-3.24-1.655L236.98 23.52c-.2-.28-.495-.77-.885-1.47s-.695-1.29-.915-1.77c.1.54.155 1.115.165 1.725.01.61.015 1.115.015 1.515V41a4 4 0 0 1-4 4H230a4 4 0 0 1-4-4Zm52.06 0V12.12H270a4 4 0 0 1-4-4V7a4 4 0 0 1 4-4h25.66a4 4 0 0 1 4 4v1.12a4 4 0 0 1-4 4h-8.12V41a4 4 0 0 1-4 4h-1.48a4 4 0 0 1-4-4Z"/></svg>
