<svg xmlns="http://www.w3.org/2000/svg" width="300" height="48"><path d="m8.661 43.42-8.143-38A2 2 0 0 1 2.474 3h5.66a2 2 0 0 1 1.962 1.616L13.92 24.18c.1.44.17.835.21 1.185.04.35.09.815.15 1.395.06-.52.12-.985.18-1.395.06-.41.14-.825.24-1.245l4.617-19.579A2 2 0 0 1 21.263 3h5.179a2 2 0 0 1 1.945 1.535L33.06 24.09c.1.36.18.78.24 1.26s.12.99.18 1.53c.08-.5.155-.96.225-1.38.07-.42.135-.78.195-1.08l3.827-19.8A2 2 0 0 1 39.69 3h5.653a2 2 0 0 1 1.955 2.422l-8.198 38A2 2 0 0 1 37.145 45h-5.822a2 2 0 0 1-1.941-1.516L24.06 22.14c-.06-.24-.11-.51-.15-.81-.04-.3-.09-.73-.15-1.29-.06.6-.115 1.035-.165 1.305l-.135.735-5.094 21.383A2 2 0 0 1 16.42 45h-5.803a2 2 0 0 1-1.956-1.58Zm36.431-1.16 15.146-38A2 2 0 0 1 62.096 3h6.35a2 2 0 0 1 1.857 1.257l15.2 38A2 2 0 0 1 83.646 45h-6.06a2 2 0 0 1-1.863-1.272L73.1 37.02H57.44l-2.568 6.696A2 2 0 0 1 53.005 45H46.95a2 2 0 0 1-1.858-2.74Zm15.528-14h9.24l-3.42-8.4-.405-.945c-.15-.35-.295-.71-.435-1.08-.14-.37-.26-.715-.36-1.035-.1.32-.22.665-.36 1.035-.14.37-.285.73-.435 1.08l-.405.945-3.42 8.4ZM94.14 43V28.68L79.926 6.064A2 2 0 0 1 81.619 3h5.976a2 2 0 0 1 1.677.91L98.82 18.6l9.489-14.685a2 2 0 0 1 1.68-.915h6.032a2 2 0 0 1 1.693 3.064L103.5 28.68V43a2 2 0 0 1-2 2h-5.36a2 2 0 0 1-2-2ZM123 43V5a2 2 0 0 1 2-2h16.84c3.62 0 6.505.665 8.655 1.995 2.15 1.33 3.695 3.03 4.635 5.1s1.41 4.225 1.41 6.465c0 1.58-.275 3.165-.825 4.755-.55 1.59-1.41 3.05-2.58 4.38-1.17 1.33-2.69 2.4-4.56 3.21-1.87.81-4.115 1.215-6.735 1.215h-9.36V43a2 2 0 0 1-2 2H125a2 2 0 0 1-2-2Zm9.48-21.82h9.72c1.08 0 1.95-.23 2.61-.69a4.014 4.014 0 0 0 1.44-1.755c.3-.71.45-1.435.45-2.175 0-.66-.135-1.35-.405-2.07-.27-.72-.735-1.325-1.395-1.815s-1.56-.735-2.7-.735h-9.72v9.24ZM183 1c-12.683 0-23 10.318-23 23s10.317 23 23 23 23-10.318 23-23-10.317-23-23-23Zm12.342 20.94-10.562 3.84-3.841 10.562A.998.998 0 0 1 180 37h-.035a1 1 0 0 1-.927-.725l-6-21a1 1 0 0 1 1.236-1.236l21 6a1 1 0 0 1 .068 1.901ZM211 43V5a2 2 0 0 1 2-2h5.48a2 2 0 0 1 2 2v38a2 2 0 0 1-2 2H213a2 2 0 0 1-2-2Zm15 0V5a2 2 0 0 1 2-2h5.55a2 2 0 0 1 1.628.84L249.76 24.3c.18.26.47.73.87 1.41.4.68.69 1.25.87 1.71-.06-.4-.105-.955-.135-1.665-.03-.71-.045-1.215-.045-1.515V5a2 2 0 0 1 2-2h5.42a2 2 0 0 1 2 2v38a2 2 0 0 1-2 2h-5.198a2 2 0 0 1-1.62-.828L236.98 23.52c-.2-.28-.495-.77-.885-1.47s-.695-1.29-.915-1.77c.1.54.155 1.115.165 1.725.01.61.015 1.115.015 1.515V43a2 2 0 0 1-2 2H228a2 2 0 0 1-2-2Zm52.06 0V12.12H268a2 2 0 0 1-2-2V5a2 2 0 0 1 2-2h29.66a2 2 0 0 1 2 2v5.12a2 2 0 0 1-2 2h-10.12V43a2 2 0 0 1-2 2h-5.48a2 2 0 0 1-2-2Z"/></svg>
