<svg xmlns="http://www.w3.org/2000/svg" width="24" height="24"><defs><radialGradient id="a" cx="50%" cy="50%" r="150%" fx="50%" fy="50%" gradientTransform="matrix(-.3333 0 0 -.2987 .667 .65)"><stop offset="0%" stop-opacity=".5"/><stop offset="77.327%" stop-opacity=".1"/><stop offset="100%" stop-opacity="0"/></radialGradient></defs><g fill="none" fill-rule="evenodd"><ellipse cx="12" cy="22" fill="url(#a)" rx="6" ry="2"/><path fill="#5C7CFA" fill-rule="nonzero" stroke="#FFF" d="M12 .5c2.073 0 3.948.839 5.305 2.195A7.476 7.476 0 0 1 19.5 8c0 1.835-.526 3.555-1.494 5.101-.497.812-1.074 1.562-1.652 2.31-.526.683-1.052 1.364-1.51 2.095-.457.727-.776 1.408-1.135 2.193-.284.705-.458 1.094-.712 1.363A1.317 1.317 0 0 1 12 21.5c-.421 0-.74-.169-.99-.43-.266-.278-.443-.681-.593-1.05-.484-1.104-.814-1.785-1.271-2.515-.466-.748-1.003-1.442-1.538-2.137-.568-.736-1.134-1.472-1.623-2.265C5.025 11.553 4.5 9.834 4.5 8c0-2.073.839-3.948 2.195-5.305A7.476 7.476 0 0 1 12 .5Z"/></g></svg>